<svg width="100%" height="100%" viewBox="0 0 513 484" version="1.1" xmlns="http://www.w3.org/2000/svg" xmlns:xlink="http://www.w3.org/1999/xlink" xml:space="preserve" xmlns:serif="http://www.serif.com/" style="fill-rule:evenodd;clip-rule:evenodd;stroke-linejoin:round;stroke-miterlimit:2;"><rect id="Artboard2" x="0" y="3.985" width="510.97" height="479.211" style="fill:none;"/><clipPath id="_clip1"><rect x="0" y="3.985" width="510.97" height="479.211"/></clipPath><g clip-path="url(#_clip1)"><g><rect x="48.85" y="422.527" width="132.481" height="62.204" style="fill:#90653d;"/><rect x="304.791" y="422.527" width="132.481" height="62.204" style="fill:#90653d;"/><path d="M508.74,279.888l-34.289,-127.967l-98.991,26.524l34.289,127.968l98.991,-26.525Z" style="fill:#90653d;"/><path d="M104.297,302.309l60.051,-118.09l-85.472,-43.463l-60.051,118.09l85.472,43.463Z" style="fill:#90653d;"/><path d="M195.548,4.487c87.16,-15.762 330.736,344.491 309.349,419.164c-14.356,50.127 -434.618,25.053 -464.629,19.651c-132.695,-23.889 113.799,-185.292 144.317,-333.146c18.981,-91.954 -85.16,-11.581 -85.16,-11.581c0,-0 8.963,-78.327 96.123,-94.088Z" style="fill:#d68439;"/><ellipse cx="254.153" cy="342.995" rx="154.557" ry="64.08" style="fill:#ad6c2f;"/><path d="M156.031,392.492c0,-0 6.072,-40.409 42.22,-41.275c49.397,-1.184 55.522,25.418 55.522,25.418c-0,-0 16.946,-24.268 51.018,-24.268c45.227,-0 45.742,41.467 45.742,41.467c0,-0 -41.297,14.538 -96.76,13.241c-55.463,-1.298 -97.742,-14.583 -97.742,-14.583" style="fill:#620807;"/><path d="M253.773,376.753c-0,-0 -4.688,8.483 -6.873,15.847c-2.186,7.364 0.205,14.475 0.205,14.475c0,-0 -6.368,-2.101 -6.368,-19.367c-0,-9.198 5.576,-17.904 9.034,-18.238c1.701,0.62 4.002,7.283 4.002,7.283Z" style="fill:#4c0100;"/><circle cx="309.857" cy="151.921" r="15.682" style="fill:#fefefe;"/><circle cx="226.528" cy="151.921" r="15.682" style="fill:#fefefe;"/><circle cx="300.082" cy="157.828" r="5.907"/><circle cx="236.759" cy="157.828" r="5.907"/><ellipse cx="268.42" cy="241.112" rx="31.662" ry="49.306" style="fill:#845122;"/><path d="M268.42,191.806c17.475,0 31.662,22.093 31.662,49.306c-0,27.212 -14.187,49.305 -31.662,49.305l0,-98.611Z" style="fill:#67411f;"/></g></g></svg>
